<svg width="39" height="38" viewBox="0 0 39 38" fill="none" xmlns="http://www.w3.org/2000/svg">
<rect x="0.828125" y="0.428223" width="38" height="37.1429" rx="18.5714" fill="white"/>
<g clip-path="url(#clip0_2128_39146)">
<path fill-rule="evenodd" clip-rule="evenodd" d="M16.4269 11.1902C17.3066 11.1516 17.5871 11.1431 19.8281 11.1431C22.0691 11.1431 22.3496 11.1524 23.2286 11.1902C24.1076 11.2281 24.7076 11.3616 25.2326 11.5552C25.7824 11.7531 26.2811 12.0624 26.6936 12.4624C27.1136 12.8545 27.4376 13.3288 27.6446 13.8531C27.8486 14.3531 27.9881 14.9245 28.0286 15.7602C28.0691 16.5995 28.0781 16.8666 28.0781 19.0002C28.0781 21.1345 28.0684 21.4016 28.0286 22.2395C27.9889 23.0752 27.8486 23.6466 27.6446 24.1466C27.4376 24.671 27.1131 25.1461 26.6936 25.5388C26.2811 25.9388 25.7824 26.2474 25.2326 26.4445C24.7076 26.6388 24.1076 26.7716 23.2301 26.8102C22.3496 26.8488 22.0691 26.8574 19.8281 26.8574C17.5871 26.8574 17.3066 26.8481 16.4269 26.8102C15.5494 26.7724 14.9494 26.6388 14.4244 26.4445C13.8738 26.2473 13.375 25.9382 12.9626 25.5388C12.5429 25.1464 12.2181 24.6716 12.0109 24.1474C11.8076 23.6474 11.6681 23.0759 11.6276 22.2402C11.5871 21.4009 11.5781 21.1338 11.5781 19.0002C11.5781 16.8659 11.5879 16.5988 11.6276 15.7616C11.6674 14.9245 11.8076 14.3531 12.0109 13.8531C12.2184 13.3288 12.5435 12.854 12.9634 12.4616C13.3752 12.062 13.8735 11.7527 14.4236 11.5552C14.9486 11.3616 15.5486 11.2288 16.4261 11.1902H16.4269ZM23.1619 12.6045C22.2919 12.5666 22.0309 12.5588 19.8281 12.5588C17.6254 12.5588 17.3644 12.5666 16.4944 12.6045C15.6896 12.6395 15.2531 12.7674 14.9621 12.8752C14.5774 13.0181 14.3021 13.1874 14.0134 13.4624C13.7397 13.716 13.529 14.0247 13.3969 14.3659C13.2836 14.6431 13.1494 15.0588 13.1126 15.8252C13.0729 16.6538 13.0646 16.9024 13.0646 19.0002C13.0646 21.0981 13.0729 21.3466 13.1126 22.1752C13.1494 22.9416 13.2836 23.3574 13.3969 23.6345C13.5289 23.9752 13.7396 24.2845 14.0134 24.5381C14.2796 24.7988 14.6044 24.9995 14.9621 25.1252C15.2531 25.2331 15.6896 25.3609 16.4944 25.3959C17.3644 25.4338 17.6246 25.4416 19.8281 25.4416C22.0316 25.4416 22.2919 25.4338 23.1619 25.3959C23.9666 25.3609 24.4031 25.2331 24.6941 25.1252C25.0789 24.9824 25.3541 24.8131 25.6429 24.5381C25.9166 24.2845 26.1274 23.9752 26.2594 23.6345C26.3726 23.3574 26.5069 22.9416 26.5436 22.1752C26.5834 21.3466 26.5916 21.0981 26.5916 19.0002C26.5916 16.9024 26.5834 16.6538 26.5436 15.8252C26.5069 15.0588 26.3726 14.6431 26.2594 14.3659C26.1094 13.9995 25.9316 13.7374 25.6429 13.4624C25.3766 13.2017 25.0524 13.0011 24.6941 12.8752C24.4031 12.7674 23.9666 12.6395 23.1619 12.6045ZM18.7744 21.4224C19.3629 21.6557 20.0182 21.6871 20.6283 21.5114C21.2385 21.3357 21.7657 20.9637 22.1198 20.459C22.474 19.9542 22.6332 19.348 22.5702 18.7439C22.5072 18.1397 22.2259 17.5752 21.7744 17.1466C21.4866 16.8727 21.1385 16.6629 20.7554 16.5325C20.3722 16.402 19.9634 16.354 19.5585 16.3921C19.1535 16.4301 18.7625 16.5532 18.4135 16.7524C18.0645 16.9517 17.7662 17.2222 17.5401 17.5444C17.314 17.8666 17.1658 18.2326 17.106 18.6159C17.0463 18.9992 17.0765 19.3904 17.1945 19.7613C17.3126 20.1322 17.5155 20.4735 17.7887 20.7607C18.0618 21.0479 18.3985 21.2739 18.7744 21.4224ZM16.8296 16.1445C17.2234 15.7695 17.6909 15.472 18.2053 15.269C18.7198 15.0661 19.2713 14.9616 19.8281 14.9616C20.385 14.9616 20.9364 15.0661 21.4509 15.269C21.9654 15.472 22.4329 15.7695 22.8266 16.1445C23.2204 16.5195 23.5327 16.9647 23.7459 17.4547C23.959 17.9447 24.0686 18.4699 24.0686 19.0002C24.0686 19.5306 23.959 20.0557 23.7459 20.5457C23.5327 21.0357 23.2204 21.4809 22.8266 21.8559C22.0314 22.6133 20.9528 23.0388 19.8281 23.0388C18.7035 23.0388 17.6249 22.6133 16.8296 21.8559C16.0344 21.0985 15.5876 20.0713 15.5876 19.0002C15.5876 17.9291 16.0344 16.9019 16.8296 16.1445ZM25.0091 15.5631C25.1067 15.4754 25.1848 15.37 25.2389 15.253C25.2929 15.1361 25.3217 15.01 25.3237 14.8823C25.3256 14.7546 25.3007 14.6277 25.2502 14.5094C25.1998 14.391 25.125 14.2834 25.0301 14.1931C24.9352 14.1028 24.8223 14.0315 24.698 13.9834C24.5737 13.9354 24.4406 13.9116 24.3064 13.9135C24.1723 13.9153 24.0399 13.9428 23.9171 13.9943C23.7944 14.0457 23.6837 14.1201 23.5916 14.2131C23.4126 14.3938 23.3146 14.6339 23.3184 14.8823C23.3222 15.1307 23.4275 15.368 23.612 15.5437C23.7965 15.7194 24.0456 15.8197 24.3064 15.8233C24.5673 15.8269 24.8194 15.7336 25.0091 15.5631Z" fill="#080808"/>
</g>
<defs>
<clipPath id="clip0_2128_39146">
<rect width="18" height="17.1429" fill="white" transform="translate(10.8281 10.4282)"/>
</clipPath>
</defs>
</svg>
